<?xml version="1.0" encoding="UTF-8"?>
<svg width="24" height="24" viewBox="0 0 24 24" fill="none" xmlns="http://www.w3.org/2000/svg">
  <path d="M3 20.5V3.5C3 2.91 3.34 2.39 3.84 2.15L13.69 12L3.84 21.85C3.34 21.6 3 21.09 3 20.5Z" fill="#1976D2"/>
  <path d="M3.84 21.85L13.69 12L17.75 16.06L5.28 22.96C4.8 23.22 4.24 23.22 3.84 21.85Z" fill="#FF9800"/>
  <path d="M20.71 12.29L17.75 16.06L13.69 12L17.75 7.94L20.71 11.71C21.1 12.1 21.1 11.9 20.71 12.29Z" fill="#4CAF50"/>
  <path d="M5.28 1.04L17.75 7.94L13.69 12L3.84 2.15C4.24 1.78 4.8 1.78 5.28 1.04Z" fill="#F44336"/>
</svg>
